<?xml version="1.0" standalone="no"?>
<!DOCTYPE svg PUBLIC "-//W3C//DTD SVG 20010904//EN"
 "http://www.w3.org/TR/2001/REC-SVG-20010904/DTD/svg10.dtd">
<svg version="1.0" xmlns="http://www.w3.org/2000/svg"
 width="225.000000pt" height="225.000000pt" viewBox="0 0 225.000000 225.000000"
 preserveAspectRatio="xMidYMid meet">
<metadata>
Created by potrace 1.14, written by Peter Selinger 2001-2017
</metadata>
<g transform="translate(0.000000,225.000000) scale(0.100000,-0.100000)"
fill="#000000" stroke="none">
<path d="M0 1125 l0 -1125 1125 0 1125 0 0 1125 0 1125 -1125 0 -1125 0 0
-1125z m1173 609 c32 -44 58 -104 72 -168 5 -26 7 -27 23 -13 46 40 191 87
226 74 34 -13 7 -155 -43 -225 -22 -32 -19 -42 14 -42 31 0 156 -64 185 -95
l25 -27 -35 -29 c-46 -38 -126 -78 -171 -85 l-36 -6 34 -67 c39 -78 56 -184
30 -194 -24 -9 -145 20 -194 48 -25 14 -47 25 -49 25 -1 0 -10 -25 -19 -55
-17 -61 -35 -94 -77 -144 -27 -32 -28 -32 -52 -14 -33 25 -71 88 -92 153 -9
30 -18 56 -19 58 -1 1 -24 -10 -50 -24 -48 -27 -139 -54 -184 -54 -23 0 -24 2
-18 67 4 49 14 84 39 133 l35 68 -53 11 c-55 13 -167 80 -177 106 -12 29 114
109 192 121 23 4 41 9 41 11 0 3 -9 18 -21 34 -30 43 -59 132 -59 184 0 45 0
45 35 45 44 0 150 -35 188 -62 24 -17 31 -18 38 -7 5 8 9 22 9 31 0 49 86 188
116 188 7 0 29 -21 47 -46z m-493 -1133 c0 -34 3 -39 20 -36 12 2 20 -2 20
-10 0 -12 -13 -14 -62 -6 -5 0 -8 21 -8 46 0 33 4 45 15 45 11 0 15 -11 15
-39z m134 23 c23 -23 19 -51 -9 -70 -36 -24 -75 -6 -75 34 0 15 5 33 12 40 17
17 54 15 72 -4z m100 10 c25 -9 8 -25 -20 -18 -28 7 -43 -18 -24 -41 16 -19
30 -19 30 0 0 8 7 15 15 15 24 0 17 -29 -9 -41 -34 -16 -66 3 -66 39 0 44 30
63 74 46z m111 -10 c22 -23 15 -56 -17 -73 -24 -14 -28 -14 -47 3 -23 21 -27
56 -9 74 17 17 54 15 73 -4z m150 -9 c9 -13 10 -28 4 -42 -7 -19 -16 -23 -49
-23 l-40 0 0 46 0 45 36 -3 c23 -2 41 -10 49 -23z m95 15 c0 -5 -11 -10 -25
-10 -14 0 -25 -4 -25 -10 0 -5 12 -10 26 -10 14 0 23 -4 19 -10 -3 -5 -15 -10
-26 -10 -11 0 -17 -5 -14 -10 4 -6 14 -9 22 -8 9 2 18 -2 20 -8 2 -6 -11 -11
-32 -11 l-35 0 0 49 0 48 35 0 c19 0 35 -4 35 -10z m80 0 c0 -5 -9 -10 -20
-10 -28 0 -25 -17 5 -24 14 -4 25 -13 25 -21 0 -19 -36 -38 -60 -30 -30 9 -25
28 5 21 14 -4 25 -2 25 4 0 5 -6 10 -14 10 -7 0 -19 7 -26 15 -10 12 -10 18 0
30 14 17 60 21 60 5z m40 -34 c0 -25 -4 -48 -10 -51 -6 -4 -10 13 -10 44 0 28
5 51 10 51 6 0 10 -20 10 -44z m98 29 c-2 -5 -13 -8 -26 -7 -27 4 -40 -22 -22
-43 14 -17 35 -15 35 3 0 17 19 16 23 -2 2 -8 -6 -20 -18 -26 -47 -25 -98 52
-52 79 21 13 64 10 60 -4z m67 -12 l24 -28 1 28 c0 15 5 27 10 27 6 0 10 -20
10 -45 0 -50 -16 -59 -39 -22 l-15 22 -5 -23 c-9 -35 -26 -31 -29 6 -3 34 3
62 13 62 3 0 17 -12 30 -27z m-889 -118 c-3 -20 -16 -31 -16 -13 0 13 8 28 16
28 1 0 1 -7 0 -15z m94 -5 c0 -11 -2 -20 -4 -20 -2 0 -6 9 -9 20 -3 11 -1 20
4 20 5 0 9 -9 9 -20z m35 10 c-3 -5 -1 -10 4 -10 6 0 11 -4 11 -10 0 -5 -7
-10 -15 -10 -15 0 -21 21 -8 33 10 10 15 8 8 -3z m56 -4 c5 3 9 -2 9 -10 0 -9
-7 -16 -15 -16 -9 0 -15 9 -14 23 0 12 3 16 6 9 2 -6 9 -10 14 -6z m123 -17
c-8 -14 -34 -11 -34 4 0 8 3 17 7 20 9 9 34 -13 27 -24z m156 11 c0 -11 -2
-20 -4 -20 -2 0 -6 9 -9 20 -3 11 -1 20 4 20 5 0 9 -9 9 -20z m79 3 c-12 -15
-12 -16 4 -10 9 3 17 2 17 -3 0 -11 -23 -13 -33 -3 -7 6 10 33 20 33 3 0 -1
-8 -8 -17z m168 -3 c1 -11 -2 -20 -8 -20 -10 0 -12 23 -2 33 9 9 9 10 10 -13z
m206 5 c4 -8 2 -17 -3 -20 -6 -4 -10 3 -10 14 0 25 6 27 13 6z m-853 -12 c0
-6 -9 -11 -20 -10 -11 1 -20 7 -20 14 0 6 9 11 20 10 11 -1 20 -7 20 -14z
m190 1 c0 -8 -4 -12 -10 -9 -5 3 -10 10 -10 16 0 5 5 9 10 9 6 0 10 -7 10 -16z
m91 7 c7 11 9 10 9 -3 0 -10 -7 -18 -15 -18 -8 0 -15 8 -14 18 0 12 2 13 6 3
5 -11 7 -11 14 0z m36 -13 c-3 -8 -6 -5 -6 6 -1 11 2 17 5 13 3 -3 4 -12 1
-19z m20 0 c-3 -8 -6 -5 -6 6 -1 11 2 17 5 13 3 -3 4 -12 1 -19z m113 1 c0 -5
-7 -9 -15 -9 -15 0 -20 12 -9 23 8 8 24 -1 24 -14z m85 -1 c6 -4 2 -8 -7 -8
-10 0 -18 7 -18 17 0 9 3 12 8 7 4 -5 12 -12 17 -16z m22 0 c-3 -8 -6 -5 -6 6
-1 11 2 17 5 13 3 -3 4 -12 1 -19z m53 8 c9 -12 8 -15 -9 -13 -12 1 -21 7 -21
14 0 17 15 16 30 -1z m120 -1 c0 -6 -7 -12 -15 -12 -8 0 -15 6 -15 12 0 6 7
12 15 12 8 0 15 -6 15 -12z m40 -6 c0 -5 -4 -9 -10 -9 -5 0 -10 7 -10 16 0 8
5 12 10 9 6 -3 10 -10 10 -16z m50 6 c0 -6 -7 -12 -15 -12 -8 0 -15 6 -15 12
0 6 7 12 15 12 8 0 15 -6 15 -12z"/>
<path d="M1097 1694 c-30 -44 -54 -107 -58 -152 -3 -22 6 -43 29 -75 17 -25
37 -58 43 -73 l11 -29 20 40 c12 22 31 53 44 68 15 18 24 41 24 62 0 44 -33
131 -64 169 l-23 30 -26 -40z"/>
<path d="M780 1565 c0 -38 37 -127 67 -162 21 -23 44 -34 93 -46 36 -8 73 -18
82 -22 15 -6 15 -1 -3 55 -10 34 -19 72 -19 85 0 28 -75 79 -146 101 -65 19
-74 18 -74 -11z"/>
<path d="M1383 1571 c-28 -9 -70 -30 -92 -44 -34 -22 -41 -33 -41 -60 -1 -17
-9 -56 -19 -85 -16 -47 -17 -52 -2 -46 26 11 114 34 131 34 36 0 88 86 108
178 9 39 9 42 -12 42 -11 -1 -44 -9 -73 -19z"/>
<path d="M1045 1420 c12 -42 45 -113 50 -108 7 7 -21 84 -41 111 l-16 22 7
-25z"/>
<path d="M1182 1398 c-27 -58 -37 -92 -24 -84 12 7 55 116 48 123 -2 2 -13
-15 -24 -39z"/>
<path d="M753 1311 c-28 -9 -68 -30 -88 -45 l-37 -29 44 -28 c24 -16 74 -36
111 -45 66 -17 68 -17 90 3 12 12 46 33 75 48 l53 28 -38 17 c-21 9 -52 29
-69 43 -37 32 -69 33 -141 8z"/>
<path d="M1357 1301 c-21 -16 -51 -34 -67 -41 -36 -15 -38 -26 -6 -34 14 -3
45 -22 70 -41 44 -33 48 -34 96 -25 53 10 144 52 156 71 16 27 -82 79 -176 94
-28 4 -42 0 -73 -24z"/>
<path d="M979 1294 c29 -14 59 -23 65 -21 15 6 -74 47 -99 46 -12 0 2 -11 34
-25z"/>
<path d="M1241 1299 c-24 -11 -42 -22 -39 -25 6 -5 88 24 103 38 16 14 -18 8
-64 -13z"/>
<path d="M975 1186 c-27 -14 -43 -25 -35 -25 8 0 38 10 65 23 28 14 43 25 35
25 -8 0 -37 -10 -65 -23z"/>
<path d="M1230 1191 c19 -10 49 -21 65 -24 22 -5 17 0 -20 18 -57 28 -98 33
-45 6z"/>
<path d="M1080 1149 c-6 -11 -18 -39 -26 -62 -21 -59 2 -31 26 31 20 53 20 69
0 31z"/>
<path d="M1155 1150 c9 -31 44 -100 50 -100 8 0 -33 102 -46 114 -8 8 -9 5 -4
-14z"/>
<path d="M985 1135 c-16 -8 -47 -14 -67 -15 -25 0 -44 -7 -58 -22 -33 -35 -70
-113 -77 -163 l-6 -45 34 6 c47 9 139 51 166 76 13 12 23 33 23 48 0 15 7 49
15 76 8 27 15 50 15 52 0 5 -16 0 -45 -13z"/>
<path d="M1225 1132 c4 -9 11 -42 17 -72 14 -74 18 -80 69 -115 48 -33 146
-63 159 -49 13 15 -19 116 -53 166 -25 38 -39 49 -67 53 -19 3 -57 12 -83 20
-45 13 -48 12 -42 -3z"/>
<path d="M1120 1104 c0 -6 -18 -39 -40 -73 -23 -36 -40 -74 -40 -91 0 -38 35
-131 62 -166 l22 -27 22 26 c28 33 64 128 64 169 0 17 -10 45 -24 62 -12 17
-33 49 -44 71 -12 22 -21 35 -22 29z"/>
<path d="M757 614 c-12 -12 -8 -42 6 -47 21 -8 39 8 35 29 -3 19 -29 30 -41
18z"/>
<path d="M963 604 c-3 -8 2 -23 11 -32 15 -15 17 -15 33 0 13 14 14 20 3 32
-16 20 -39 20 -47 0z"/>
<path d="M1110 596 c0 -29 11 -39 35 -30 24 10 15 48 -12 52 -19 3 -23 -1 -23
-22z"/>
<path d="M950 490 c0 -5 5 -10 11 -10 5 0 7 5 4 10 -3 6 -8 10 -11 10 -2 0 -4
-4 -4 -10z"/>
</g>
</svg>
